<?xml version="1.0" standalone="no"?>
<!DOCTYPE svg PUBLIC "-//W3C//DTD SVG 20010904//EN"
 "http://www.w3.org/TR/2001/REC-SVG-20010904/DTD/svg10.dtd">
<svg version="1.0" xmlns="http://www.w3.org/2000/svg"
 width="360.000000pt" height="360.000000pt" viewBox="0 0 360.000000 360.000000"
 preserveAspectRatio="xMidYMid meet">

<g transform="translate(0.000000,360.000000) scale(0.100000,-0.100000)"
fill="#000000" stroke="none">
<path d="M1203 2588 c-371 -371 -556 -563 -563 -584 -13 -39 -1 -74 36 -103
26 -20 36 -21 335 -21 l309 0 2 -694 3 -694 25 -21 c25 -20 32 -20 459 -18
l434 2 21 28 c21 28 21 35 24 713 l3 684 302 0 c282 0 304 1 334 20 33 20 51
69 39 107 -3 10 -257 269 -564 576 l-557 557 -45 0 -45 0 -552 -552z"/>
</g>
</svg>
