<?xml version="1.0" standalone="no"?>
<!DOCTYPE svg PUBLIC "-//W3C//DTD SVG 20010904//EN"
 "http://www.w3.org/TR/2001/REC-SVG-20010904/DTD/svg10.dtd">
<svg version="1.0" xmlns="http://www.w3.org/2000/svg"
 width="900.000000pt" height="900.000000pt" viewBox="0 0 900.000000 900.000000"
 preserveAspectRatio="xMidYMid meet">
<metadata>
Created by potrace 1.16, written by Peter Selinger 2001-2019
</metadata>
<g transform="translate(0.000000,900.000000) scale(0.100000,-0.100000)"
fill="#000000" stroke="none">
<path d="M4120 8984 c-844 -75 -1666 -400 -2345 -924 -298 -230 -606 -538
-835 -835 -913 -1181 -1179 -2711 -715 -4109 309 -932 940 -1767 1760 -2328
1337 -916 3017 -1041 4460 -332 344 168 683 392 970 638 110 95 358 341 459
456 1428 1628 1503 3968 182 5680 -224 290 -536 602 -831 830 -793 612 -1763
944 -2745 939 -113 -1 -275 -8 -360 -15z m772 -484 c813 -82 1525 -369 2148
-866 172 -138 455 -420 594 -594 111 -138 277 -383 358 -525 281 -495 446
-1024 509 -1635 16 -149 16 -613 0 -760 -64 -614 -228 -1140 -509 -1635 -56
-99 -240 -378 -279 -424 l-30 -35 -38 70 c-204 372 -385 613 -672 895 -359
353 -794 631 -1250 800 -79 29 -143 56 -143 59 0 3 15 14 33 24 64 38 214 156
305 241 276 259 488 602 592 961 57 193 73 317 73 544 1 226 -11 320 -64 519
-189 712 -789 1314 -1499 1505 -207 55 -258 61 -525 61 -233 -1 -258 -3 -378
-28 -556 -119 -1042 -450 -1358 -926 -167 -252 -273 -522 -326 -826 -26 -152
-23 -472 5 -627 50 -275 141 -512 288 -748 152 -247 397 -502 620 -647 40 -26
74 -50 74 -54 0 -3 -64 -29 -142 -58 -465 -173 -895 -448 -1257 -804 -267
-263 -467 -526 -635 -837 -31 -58 -61 -109 -65 -113 -15 -15 -199 248 -313
448 -500 878 -651 1945 -418 2955 134 583 400 1130 776 1600 140 175 423 457
594 594 675 538 1440 825 2345 880 98 6 477 -3 587 -14z m-152 -1285 c538 -76
965 -379 1199 -851 187 -377 219 -848 85 -1269 -58 -183 -187 -409 -321 -562
-198 -225 -530 -414 -838 -477 -205 -42 -475 -46 -675 -11 -336 59 -683 249
-893 488 -134 153 -264 379 -321 562 -91 286 -107 588 -45 887 133 656 656
1141 1328 1233 131 18 354 18 481 0z m115 -3701 c538 -57 1050 -258 1480 -580
291 -218 541 -489 740 -804 61 -96 235 -436 250 -486 5 -18 -12 -38 -90 -110
-380 -349 -854 -637 -1330 -807 -466 -167 -898 -241 -1405 -240 -269 0 -389 8
-629 43 -780 115 -1526 471 -2106 1004 -78 72 -95 92 -90 110 15 50 189 390
250 486 297 469 694 831 1185 1079 530 269 1119 371 1745 305z"/>
</g>
</svg>
